<svg width="5" height="5" viewBox="0 0 5 5" fill="none" xmlns="http://www.w3.org/2000/svg">
<g clip-path="url(#clip0_1_214)">
<path d="M2.85702 2.95306C2.50884 2.95306 2.22715 3.32279 2.22715 3.77977C2.22715 4.23676 2.50884 4.60648 2.85702 4.60648C3.2052 4.60648 3.4869 4.23676 3.4869 3.77977C3.4869 3.32279 3.2052 2.95306 2.85702 2.95306ZM3.13697 3.81594C3.13697 3.84637 3.11772 3.87163 3.09454 3.87163H2.82947C2.80628 3.87163 2.78704 3.84637 2.78704 3.81594V3.37618C2.78704 3.34575 2.80628 3.32049 2.82947 3.32049H2.88458C2.90776 3.32049 2.92701 3.34575 2.92701 3.37618V3.68792H3.09454C3.11772 3.68792 3.13697 3.71318 3.13697 3.7436V3.81594ZM2.08718 3.77977C2.08718 3.62017 2.11648 3.46918 2.16678 3.33484C2.13179 3.32623 2.09592 3.32049 2.05918 3.32049H1.98613C1.88903 3.37905 1.78099 3.41235 1.66726 3.41235C1.55353 3.41235 1.44593 3.37905 1.34839 3.32049H1.27534C0.950777 3.32049 0.687454 3.6661 0.687454 4.09209V4.33091C0.687454 4.48305 0.781498 4.60648 0.897412 4.60648H2.41567C2.21752 4.42334 2.08718 4.12136 2.08718 3.77977ZM1.66726 3.13678C1.97651 3.13678 2.22715 2.80781 2.22715 2.40192C2.22715 1.99603 1.97651 1.66707 1.66726 1.66707C1.35801 1.66707 1.10737 1.99603 1.10737 2.40192C1.10737 2.80781 1.35801 3.13678 1.66726 3.13678Z" fill="white"/>
</g>
<defs>
<clipPath id="clip0_1_214">
<rect width="3.35933" height="3.35933" fill="white" transform="translate(0.6875 0.826996)"/>
</clipPath>
</defs>
</svg>
