<svg width="116" height="31" viewBox="0 0 116 31" fill="none" xmlns="http://www.w3.org/2000/svg">
<path d="M7.34923 8.2548C9.38671 8.44608 11.4325 8.64567 13.47 8.83695C14.1353 8.26311 16.3973 6.45845 19.7571 6.37529C20.622 6.35866 23.0503 6.33371 25.2957 7.96372C28.564 10.3339 28.8052 14.2759 28.8218 14.6168C29.0464 19.5817 24.5888 23.2243 24.988 23.5487C25.2625 23.7732 27.3748 22.0351 28.8135 19.6566C29.7366 18.1264 30.1607 16.696 30.377 15.6897C30.3936 14.6584 30.377 9.39415 26.2271 5.16109C22.8674 1.72642 18.809 1.04447 17.545 0.878143C16.3807 1.01121 14.1436 1.41871 11.8483 2.95725C9.11228 4.78686 7.83157 7.1903 7.34923 8.2548Z" fill="#5BC4BF"/>
<path d="M10.3184 14.6002C10.2019 14.5586 10.5762 12.3048 11.6739 10.7081C12.3974 9.66854 13.4702 8.75374 13.4702 8.75374C13.4868 8.74542 13.4952 8.72879 13.5035 8.72879C14.5513 8.97828 15.3996 9.27767 16.0233 9.51885C18.1855 10.3838 18.9589 11.1904 19.275 11.5564C19.6409 11.9805 19.9319 12.4545 19.8571 12.5294C19.7074 12.6708 18.46 10.8661 16.3975 10.4752C15.1085 10.2257 14.0274 10.6332 13.7114 10.7663C12.4639 11.257 11.7737 12.1053 11.4494 12.5044C10.5595 13.6105 10.3932 14.6251 10.3184 14.6002Z" fill="#87236A"/>
<path d="M10.3599 14.5586C10.7674 14.4754 10.9004 18.8498 13.6365 20.1555C15.3247 20.9622 17.6865 20.4632 19.1169 19.0494C20.8966 17.2864 21.0795 14.0513 19.2167 11.5314C20.2728 12.388 21.8779 13.9182 23.1419 16.2718C24.7719 19.2989 24.9882 22.1182 25.0048 23.5736C24.8385 23.6734 24.5973 23.8064 24.3062 23.9478C20.6471 25.7275 16.8632 24.5133 16.6137 24.4302C15.7488 24.1391 12.7383 22.9914 11.1333 19.9393C9.77772 17.3695 10.0355 14.6251 10.3599 14.5586Z" fill="#87236A"/>
<path d="M1.83566 10.0512C2.45938 9.66868 3.27438 9.25286 4.25569 8.91189C5.46155 8.49607 6.54267 8.32142 7.37429 8.24657C7.84 7.21534 8.99597 5.03644 11.4326 3.24841C13.9192 1.42712 16.4141 1.00298 17.5451 0.878237C16.4473 0.703592 11.9732 0.104811 7.55725 2.90744C3.70682 5.35246 2.25148 8.90357 1.83566 10.0512Z" fill="#1296B0"/>
<path d="M24.9966 23.5734C25.8531 23.0162 27.1172 22.0515 28.2399 20.5213C29.6454 18.6002 30.1693 16.7124 30.3855 15.6312C30.3938 16.9286 30.2441 19.5483 28.7472 22.3841C27.4249 24.8874 25.6535 26.4093 24.6306 27.1661C24.7471 25.9768 24.8718 24.7793 24.9966 23.5734Z" fill="#1296B0"/>
<path d="M7.37423 8.25491C7.60708 8.22996 7.8732 8.1967 8.17259 8.18006C8.31397 8.17175 8.62167 8.1468 9.02085 8.1468C9.2537 8.1468 9.68615 8.13848 10.2267 8.17175C10.7839 8.20501 11.1914 8.27154 11.5573 8.32976C12.0646 8.41292 12.7382 8.53767 13.5033 8.73726C13.2372 8.96181 9.6113 12.1803 10.3016 17.0038C10.7506 20.1723 12.8546 22.634 15.1582 23.7983C19.3413 25.9106 24.2729 23.9313 24.2729 23.9563C24.3145 24.106 20.9963 25.7277 16.9047 25.1123C15.7653 24.9376 10.418 23.9729 7.68193 18.9082C4.94588 13.8186 7.10811 8.83706 7.37423 8.25491Z" fill="#BF2070"/>
<path d="M1.82721 10.0593L1.83552 10.0427C2.49251 9.63515 3.39066 9.16943 4.50504 8.81182C5.6111 8.45422 6.60906 8.30452 7.37415 8.24631C7.10803 8.86172 4.95412 14.1094 7.88976 19.1741C8.0145 19.3903 10.393 23.3406 15.1415 24.6878C19.15 25.8189 22.7177 24.5964 22.7177 24.613C22.7177 24.7128 19.1666 26.1349 14.7923 25.4945C13.4617 25.3033 8.43032 24.4883 4.88759 19.9475C1.68583 15.8475 1.76068 11.365 1.82721 10.0842C1.81889 10.0759 1.82721 10.0759 1.82721 10.0593Z" fill="#F04E30"/>
<path d="M1.83559 10.0509C-0.576126 16.1052 1.25345 23.0328 6.27647 27.0413C11.5407 31.2411 19.15 31.3243 24.6222 27.1744C24.7469 25.9768 24.8716 24.7793 24.9964 23.5734C23.7157 24.272 21.462 25.2949 18.4931 25.5527C17.1625 25.6691 13.1873 25.9519 9.07905 23.5069C7.94804 22.8332 4.62154 20.646 2.87512 16.3048C1.81896 13.7101 1.76074 11.3815 1.83559 10.0509Z" fill="#F7941D"/>
<path d="M15.5242 20.6796C18.4545 20.6796 20.8299 18.3264 20.8299 15.4236C20.8299 12.5208 18.4545 10.1677 15.5242 10.1677C12.5939 10.1677 10.2184 12.5208 10.2184 15.4236C10.2184 18.3264 12.5939 20.6796 15.5242 20.6796Z" fill="#F1F2F2"/>
<path d="M26.0194 8.4296C28.4394 10.4921 28.9633 13.1367 29.1047 13.9517C29.5954 16.7044 28.7388 18.8417 28.4893 19.4239C27.4498 21.8273 25.7034 23.1164 24.9882 23.5821C24.9715 22.2847 24.7553 17.4945 21.0546 13.3612C18.252 10.2259 14.9172 9.11155 13.4951 8.72899C14.1188 8.20506 15.1085 7.50648 16.464 6.98255C17.0877 6.74137 18.4765 6.21744 20.2978 6.26734C23.4996 6.3505 25.6701 8.13021 26.0194 8.4296Z" fill="#104573"/>
<path d="M39.0258 18.5418V22.6917H37.0798V11.5061H41.3627C42.6101 11.5061 43.6081 11.8305 44.3399 12.4792C45.0718 13.1278 45.446 13.9927 45.446 15.0656C45.446 16.1633 45.0884 17.0199 44.3649 17.627C43.6414 18.2341 42.6351 18.5418 41.3461 18.5418H39.0258ZM39.0258 16.9783H41.3627C42.053 16.9783 42.5852 16.812 42.9428 16.4877C43.3087 16.1633 43.4917 15.6893 43.4917 15.0739C43.4917 14.4668 43.3087 13.9844 42.9345 13.6268C42.5686 13.2692 42.0613 13.0779 41.4126 13.0696H39.0258V16.9783V16.9783Z" fill="black"/>
<path d="M50.5939 22.8503C49.413 22.8503 48.4483 22.476 47.7165 21.7359C46.9846 20.9874 46.6104 19.9977 46.6104 18.7586V18.5257C46.6104 17.6941 46.7684 16.9539 47.0927 16.3053C47.4088 15.6483 47.8662 15.141 48.44 14.7833C49.0221 14.4174 49.6625 14.2345 50.3777 14.2345C51.5087 14.2345 52.3819 14.5921 52.9973 15.3156C53.6127 16.0391 53.9204 17.062 53.9204 18.3844V19.1411H48.4899C48.5481 19.8314 48.7726 20.372 49.1801 20.7712C49.5793 21.1704 50.0866 21.3699 50.6937 21.3699C51.5503 21.3699 52.2488 21.0207 52.7811 20.3304L53.7873 21.2868C53.4547 21.7858 53.0139 22.1683 52.4567 22.4428C51.9079 22.7089 51.2841 22.8503 50.5939 22.8503ZM50.3777 15.7231C49.8621 15.7231 49.4546 15.9061 49.1385 16.2637C48.8225 16.6213 48.6229 17.1203 48.5315 17.7606H52.0908V17.6192C52.0492 16.9955 51.8829 16.5215 51.5918 16.2055C51.2925 15.8894 50.8933 15.7231 50.3777 15.7231Z" fill="black"/>
<path d="M55.1096 18.4589C55.1096 17.6439 55.2676 16.9121 55.5919 16.2551C55.9163 15.5981 56.3654 15.0991 56.9558 14.7498C57.538 14.4005 58.2116 14.2259 58.9684 14.2259C60.091 14.2259 60.9975 14.5835 61.6961 15.307C62.3946 16.0306 62.7689 16.9869 62.8271 18.1762L62.8354 18.617C62.8354 19.4403 62.6774 20.1721 62.3614 20.8125C62.0454 21.4612 61.5963 21.9601 61.0058 22.3094C60.4154 22.6587 59.7418 22.8417 58.9767 22.8417C57.8041 22.8417 56.8643 22.4508 56.1575 21.6691C55.4506 20.8873 55.1013 19.8478 55.1013 18.5504V18.4589H55.1096ZM56.9724 18.6253C56.9724 19.4819 57.1471 20.1472 57.5047 20.6378C57.8623 21.1285 58.3529 21.3614 58.9767 21.3614C59.6004 21.3614 60.0994 21.1119 60.4486 20.6212C60.7979 20.1305 60.9726 19.407 60.9726 18.4589C60.9726 17.619 60.7896 16.9537 60.432 16.463C60.0744 15.9723 59.5838 15.7228 58.96 15.7228C58.3529 15.7228 57.8706 15.964 57.5047 16.4464C57.1388 16.9287 56.9724 17.6606 56.9724 18.6253Z" fill="black"/>
<path d="M71.7671 18.6255C71.7671 19.9146 71.4761 20.9375 70.8939 21.7026C70.3118 22.4677 69.5301 22.8503 68.5404 22.8503C67.6256 22.8503 66.9021 22.5509 66.3532 21.9521V25.8941H64.4904V14.3842H66.2119L66.2867 15.2324C66.8356 14.5671 67.5757 14.2345 68.5238 14.2345C69.5384 14.2345 70.3367 14.6087 70.9106 15.3655C71.4844 16.1223 71.7755 17.1702 71.7755 18.5091V18.6255H71.7671ZM69.9126 18.4592C69.9126 17.6276 69.7463 16.9706 69.4136 16.4882C69.081 16.0059 68.607 15.7564 67.9999 15.7564C67.2348 15.7564 66.6859 16.0724 66.3532 16.7044V20.3886C66.6942 21.0373 67.2431 21.3533 68.0165 21.3533C68.607 21.3533 69.0727 21.1121 69.4136 20.6381C69.7463 20.1641 69.9126 19.4322 69.9126 18.4592Z" fill="black"/>
<path d="M75.418 22.692H73.5468V10.891H75.4097V22.692H75.418Z" fill="black"/>
<path d="M81.1809 22.8503C80 22.8503 79.0353 22.476 78.3035 21.7359C77.5717 20.9874 77.1974 19.9977 77.1974 18.7586V18.5257C77.1974 17.6941 77.3555 16.9539 77.6798 16.3053C77.9958 15.6483 78.4532 15.141 79.027 14.7833C79.6092 14.4174 80.2495 14.2345 80.9647 14.2345C82.0957 14.2345 82.9689 14.5921 83.5843 15.3156C84.1997 16.0391 84.5074 17.062 84.5074 18.3844V19.1411H79.0769C79.1351 19.8314 79.3597 20.372 79.7672 20.7712C80.1664 21.1704 80.6736 21.3699 81.2807 21.3699C82.1373 21.3699 82.8359 21.0207 83.3681 20.3304L84.3744 21.2868C84.0417 21.7858 83.601 22.1683 83.0438 22.4428C82.5032 22.7089 81.8795 22.8503 81.1809 22.8503ZM80.9647 15.7231C80.4491 15.7231 80.0416 15.9061 79.7256 16.2637C79.4096 16.6213 79.21 17.1203 79.1185 17.7606H82.6779V17.6192C82.6363 16.9955 82.47 16.5215 82.1789 16.2055C81.8878 15.8894 81.4803 15.7231 80.9647 15.7231Z" fill="black"/>
<path d="M92.0754 19.8145C92.0754 19.3239 91.9008 18.9413 91.5598 18.6752C91.2105 18.4091 90.5868 18.1429 89.6886 17.8685C88.7905 17.5941 88.067 17.2947 87.5347 16.962C86.5118 16.3216 86.0045 15.49 86.0045 14.4588C86.0045 13.5606 86.3704 12.8121 87.1106 12.23C87.8424 11.6478 88.7988 11.3568 89.9714 11.3568C90.7531 11.3568 91.4434 11.4981 92.0504 11.7892C92.6575 12.072 93.1399 12.4878 93.4892 13.0117C93.8384 13.544 94.0131 14.1261 94.0131 14.7748H92.0754C92.0754 14.1926 91.8924 13.7352 91.5265 13.4026C91.1606 13.0699 90.6367 12.9036 89.9548 12.9036C89.3227 12.9036 88.8237 13.0367 88.4745 13.3111C88.1252 13.5855 87.9505 13.9598 87.9505 14.4505C87.9505 14.858 88.1418 15.1989 88.516 15.4734C88.8986 15.7478 89.5223 16.0139 90.3872 16.2717C91.2604 16.5296 91.959 16.8289 92.4829 17.1533C93.0068 17.4859 93.3977 17.8602 93.6389 18.2926C93.8883 18.7168 94.0048 19.2241 94.0048 19.7979C94.0048 20.7293 93.6472 21.4695 92.932 22.0184C92.2168 22.5673 91.2521 22.8417 90.0213 22.8417C89.2146 22.8417 88.4661 22.692 87.7925 22.3926C87.1106 22.0932 86.5867 21.6774 86.2124 21.1535C85.8382 20.6295 85.6469 20.0141 85.6469 19.3072H87.5929C87.5929 19.9393 87.8008 20.4299 88.225 20.7792C88.6408 21.1285 89.2479 21.3032 90.0296 21.3032C90.7032 21.3032 91.2105 21.1701 91.5515 20.8957C91.9008 20.6295 92.0754 20.2636 92.0754 19.8145Z" fill="black"/>
<path d="M95.2686 18.4589C95.2686 17.6439 95.4266 16.9121 95.751 16.2551C96.0753 15.5981 96.5244 15.0991 97.1148 14.7498C97.697 14.4005 98.3706 14.2259 99.1274 14.2259C100.25 14.2259 101.157 14.5835 101.855 15.307C102.554 16.0306 102.928 16.9869 102.986 18.1762L102.994 18.617C102.994 19.4403 102.836 20.1721 102.52 20.8125C102.204 21.4612 101.755 21.9601 101.165 22.3094C100.574 22.6587 99.9008 22.8417 99.1357 22.8417C97.9631 22.8417 97.0234 22.4508 96.3165 21.6691C95.6096 20.8873 95.2603 19.8478 95.2603 18.5504V18.4589H95.2686ZM97.1398 18.6253C97.1398 19.4819 97.3144 20.1472 97.672 20.6378C98.0296 21.1285 98.5203 21.3614 99.144 21.3614C99.7677 21.3614 100.267 21.1119 100.616 20.6212C100.965 20.1305 101.14 19.407 101.14 18.4589C101.14 17.619 100.957 16.9537 100.599 16.463C100.242 15.9723 99.7511 15.7228 99.1274 15.7228C98.5203 15.7228 98.0379 15.964 97.672 16.4464C97.3061 16.9287 97.1398 17.6606 97.1398 18.6253Z" fill="black"/>
<path d="M106.637 22.692H104.774V10.891H106.637V22.692Z" fill="black"/>
<path d="M110.845 7.47276H109.573V10.9823H108.866V7.47276H107.602V6.89893H110.837V7.47276H110.845Z" fill="black"/>
<path d="M112.325 6.89893L113.506 10.0259L114.679 6.89893H115.594V10.9823H114.887V9.63502L114.953 7.83868L113.747 10.9823H113.24L112.034 7.83868L112.101 9.63502V10.9823H111.394V6.89893H112.325Z" fill="black"/>
</svg>
