<svg width="5" height="5" viewBox="0 0 5 5" fill="none" xmlns="http://www.w3.org/2000/svg">
<g clip-path="url(#clip0_1_220)">
<path d="M3.65226 0.582512L3.9672 0.8957L3.26559 1.59556L3.51404 1.84401L4.2139 1.14415L4.52709 1.45734V0.582512H3.65226ZM2.60247 1.80727C1.92711 1.80727 1.37772 2.35491 1.37772 3.03202C1.37772 3.35685 1.50675 3.66837 1.73644 3.89806C1.96613 4.12774 2.27765 4.25678 2.60247 4.25678C3.27784 4.25678 3.82723 3.70914 3.82723 3.03202C3.82723 2.7072 3.69819 2.39568 3.46851 2.16599C3.23882 1.9363 2.9273 1.80727 2.60247 1.80727V1.80727ZM2.60247 2.18344C3.06963 2.18344 3.45105 2.56312 3.45105 3.03202C3.45105 3.14346 3.4291 3.25381 3.38646 3.35676C3.34381 3.45972 3.28131 3.55326 3.20251 3.63206C3.12371 3.71086 3.03016 3.77337 2.92721 3.81601C2.82426 3.85866 2.71391 3.8806 2.60247 3.8806C2.13357 3.8806 1.75389 3.50093 1.75389 3.03202C1.75389 2.80697 1.84329 2.59113 2.00243 2.43199C2.16157 2.27285 2.37741 2.18344 2.60247 2.18344V2.18344ZM2.42751 2.50713V3.15275L2.98565 3.47469L3.11687 3.24723L2.68995 3.00053V2.50713" fill="white"/>
</g>
<defs>
<clipPath id="clip0_1_220">
<rect width="4.19916" height="4.19916" fill="white" transform="translate(0.502945 0.407089)"/>
</clipPath>
</defs>
</svg>
