<svg width="2" height="2" viewBox="0 0 2 2" fill="none" xmlns="http://www.w3.org/2000/svg">
<g clip-path="url(#clip0_1_212)">
<path d="M1.28086 1.27269L1.13505 1.4185L1.03299 1.31644L1.07673 1.27269L1.13505 1.33102L1.23712 1.22895L1.28086 1.27269ZM0.977586 1.35726C0.965921 1.36018 0.957173 1.36018 0.945509 1.36018C0.817201 1.36018 0.712222 1.2552 0.712222 1.12689C0.712222 0.998582 0.817201 0.893603 0.945509 0.893603C1.07382 0.893603 1.1788 0.998582 1.1788 1.12689C1.1788 1.13855 1.1788 1.1473 1.17588 1.15897C1.19629 1.16188 1.21379 1.16772 1.23129 1.17646C1.2342 1.15897 1.23712 1.14439 1.23712 1.12689C1.23712 0.966505 1.10589 0.835281 0.945509 0.835281C0.785124 0.835281 0.6539 0.966505 0.6539 1.12689C0.6539 1.28727 0.785124 1.4185 0.945509 1.4185C0.963005 1.4185 0.980502 1.41558 0.995082 1.41267C0.986334 1.39809 0.980502 1.37767 0.977586 1.35726V1.35726ZM1.05049 1.18813L0.960089 1.13564V0.981086H0.916348V1.15605L1.01841 1.21729C1.02716 1.20562 1.03882 1.19688 1.05049 1.18813V1.18813Z" fill="black"/>
</g>
<defs>
<clipPath id="clip0_1_212">
<rect width="0.699861" height="0.699861" fill="white" transform="translate(0.595543 0.777039)"/>
</clipPath>
</defs>
</svg>
