<svg width="51" height="70" viewBox="0 0 51 70" fill="none" xmlns="http://www.w3.org/2000/svg">
<path d="M0.869629 3.03379C0.869629 1.35828 2.2279 0 3.90342 0H47.0819C48.7574 0 50.1156 1.35827 50.1156 3.03379V66.553C50.1156 68.2285 48.7574 69.5868 47.0819 69.5868H3.90342C2.22791 69.5868 0.869629 68.2285 0.869629 66.553V3.03379Z" fill="white"/>
<path d="M0.869629 3.03379C0.869629 1.35828 2.2279 0 3.90342 0H47.0819C48.7574 0 50.1156 1.35827 50.1156 3.03379V66.553C50.1156 68.2285 48.7574 69.5868 47.0819 69.5868H3.90342C2.22791 69.5868 0.869629 68.2285 0.869629 66.553V3.03379Z" stroke="black"/>
</svg>
