<svg width="27" height="37" viewBox="0 0 27 37" fill="none" xmlns="http://www.w3.org/2000/svg">
<path d="M0.256516 1.86439C0.256516 1.00631 0.952126 0.310692 1.81021 0.310692H24.4577C25.3158 0.310692 26.0114 1.0063 26.0114 1.86438V35.1497C26.0114 36.0078 25.3158 36.7034 24.4577 36.7034H1.8102C0.952125 36.7034 0.256516 36.0078 0.256516 35.1498V1.86439Z" fill="white"/>
<path d="M0.256516 1.86439C0.256516 1.00631 0.952126 0.310692 1.81021 0.310692H24.4577C25.3158 0.310692 26.0114 1.0063 26.0114 1.86438V35.1497C26.0114 36.0078 25.3158 36.7034 24.4577 36.7034H1.8102C0.952125 36.7034 0.256516 36.0078 0.256516 35.1498V1.86439Z" stroke="black"/>
</svg>
